<mxfile host="Electron" modified="2024-03-27T21:22:27.694Z" agent="Mozilla/5.0 (X11; Linux x86_64) AppleWebKit/537.36 (KHTML, like Gecko) draw.io/22.1.18 Chrome/120.0.6099.216 Electron/28.1.4 Safari/537.36" etag="d5QfFuAUsvupkjr--FKl" version="22.1.18" type="device">
  <diagram name="Seite-1" id="23MRz16cfzoXieUq-R6g">
    <mxGraphModel dx="957" dy="1666" grid="1" gridSize="10" guides="1" tooltips="1" connect="1" arrows="1" fold="1" page="1" pageScale="1" pageWidth="827" pageHeight="1169" math="0" shadow="0">
      <root>
        <mxCell id="0" />
        <mxCell id="1" parent="0" />
        <mxCell id="91nenJE4Ufh3_1_eLQ6r-1" value="" style="rounded=0;whiteSpace=wrap;html=1;" parent="1" vertex="1">
          <mxGeometry x="100" y="30" width="440" height="340" as="geometry" />
        </mxCell>
        <mxCell id="P1zn6FIA8qhAu7OwvEEA-7" value="«System»&lt;br&gt;&lt;b&gt;Kantinerado&lt;/b&gt;" style="html=1;dropTarget=0;whiteSpace=wrap;" parent="1" vertex="1">
          <mxGeometry x="330" y="130" width="180" height="90" as="geometry" />
        </mxCell>
        <mxCell id="P1zn6FIA8qhAu7OwvEEA-8" value="" style="shape=module;jettyWidth=8;jettyHeight=4;" parent="P1zn6FIA8qhAu7OwvEEA-7" vertex="1">
          <mxGeometry x="1" width="20" height="20" relative="1" as="geometry">
            <mxPoint x="-27" y="7" as="offset" />
          </mxGeometry>
        </mxCell>
        <mxCell id="P1zn6FIA8qhAu7OwvEEA-27" value="" style="endArrow=classic;html=1;rounded=0;entryX=0;entryY=0.25;entryDx=0;entryDy=0;" parent="1" target="P1zn6FIA8qhAu7OwvEEA-7" edge="1">
          <mxGeometry width="50" height="50" relative="1" as="geometry">
            <mxPoint x="200" y="102.56538461538464" as="sourcePoint" />
            <mxPoint x="280" y="80.0012820512821" as="targetPoint" />
          </mxGeometry>
        </mxCell>
        <mxCell id="TICZapAT-MMxQxtXfbRk-1" value="bestellt" style="edgeLabel;html=1;align=center;verticalAlign=middle;resizable=0;points=[];" vertex="1" connectable="0" parent="P1zn6FIA8qhAu7OwvEEA-27">
          <mxGeometry x="0.1543" relative="1" as="geometry">
            <mxPoint as="offset" />
          </mxGeometry>
        </mxCell>
        <mxCell id="TICZapAT-MMxQxtXfbRk-2" value="Kantinenuser" style="shape=umlActor;verticalLabelPosition=bottom;verticalAlign=top;html=1;outlineConnect=0;" vertex="1" parent="1">
          <mxGeometry x="180" y="190" width="30" height="60" as="geometry" />
        </mxCell>
        <mxCell id="TICZapAT-MMxQxtXfbRk-3" value="User" style="shape=umlActor;verticalLabelPosition=bottom;verticalAlign=top;html=1;outlineConnect=0;" vertex="1" parent="1">
          <mxGeometry x="180" y="80" width="30" height="60" as="geometry" />
        </mxCell>
        <mxCell id="TICZapAT-MMxQxtXfbRk-6" value="" style="endArrow=classic;html=1;rounded=0;entryX=0.001;entryY=0.432;entryDx=0;entryDy=0;entryPerimeter=0;" edge="1" parent="1" source="TICZapAT-MMxQxtXfbRk-2" target="P1zn6FIA8qhAu7OwvEEA-7">
          <mxGeometry width="50" height="50" relative="1" as="geometry">
            <mxPoint x="270" y="259.99538461538464" as="sourcePoint" />
            <mxPoint x="400" y="310.43" as="targetPoint" />
          </mxGeometry>
        </mxCell>
        <mxCell id="TICZapAT-MMxQxtXfbRk-7" value="verwaltet Essen" style="edgeLabel;html=1;align=center;verticalAlign=middle;resizable=0;points=[];" vertex="1" connectable="0" parent="TICZapAT-MMxQxtXfbRk-6">
          <mxGeometry x="0.1543" relative="1" as="geometry">
            <mxPoint as="offset" />
          </mxGeometry>
        </mxCell>
        <mxCell id="TICZapAT-MMxQxtXfbRk-8" value="Admin" style="shape=umlActor;verticalLabelPosition=bottom;verticalAlign=top;html=1;outlineConnect=0;" vertex="1" parent="1">
          <mxGeometry x="260" y="280" width="30" height="60" as="geometry" />
        </mxCell>
        <mxCell id="TICZapAT-MMxQxtXfbRk-9" value="" style="endArrow=classic;html=1;rounded=0;entryX=0.122;entryY=1.014;entryDx=0;entryDy=0;entryPerimeter=0;" edge="1" parent="1" target="P1zn6FIA8qhAu7OwvEEA-7">
          <mxGeometry width="50" height="50" relative="1" as="geometry">
            <mxPoint x="290" y="280" as="sourcePoint" />
            <mxPoint x="410" y="235" as="targetPoint" />
          </mxGeometry>
        </mxCell>
        <mxCell id="TICZapAT-MMxQxtXfbRk-10" value="verwaltet User" style="edgeLabel;html=1;align=center;verticalAlign=middle;resizable=0;points=[];" vertex="1" connectable="0" parent="TICZapAT-MMxQxtXfbRk-9">
          <mxGeometry x="0.1543" relative="1" as="geometry">
            <mxPoint as="offset" />
          </mxGeometry>
        </mxCell>
        <mxCell id="TICZapAT-MMxQxtXfbRk-14" value="&lt;h2 id=&quot;31-business-context&quot;&gt;&lt;font style=&quot;font-weight: normal; font-size: 18px;&quot;&gt;Business Context&lt;/font&gt;&lt;/h2&gt;" style="text;strokeColor=none;fillColor=none;html=1;fontSize=24;fontStyle=1;verticalAlign=middle;align=center;" vertex="1" parent="1">
          <mxGeometry x="150" y="30" width="100" height="40" as="geometry" />
        </mxCell>
        <mxCell id="TICZapAT-MMxQxtXfbRk-15" style="edgeStyle=orthogonalEdgeStyle;rounded=0;orthogonalLoop=1;jettySize=auto;html=1;exitX=0.5;exitY=1;exitDx=0;exitDy=0;" edge="1" parent="1" source="TICZapAT-MMxQxtXfbRk-14" target="TICZapAT-MMxQxtXfbRk-14">
          <mxGeometry relative="1" as="geometry" />
        </mxCell>
      </root>
    </mxGraphModel>
  </diagram>
</mxfile>
